<?xml version="1.0" encoding="UTF-8"?><svg xmlns="http://www.w3.org/2000/svg" xmlns:xlink="http://www.w3.org/1999/xlink" fill-opacity="1" color-rendering="auto" color-interpolation="auto" text-rendering="auto" stroke="black" stroke-linecap="square" width="510" stroke-miterlimit="10" shape-rendering="auto" stroke-opacity="1" fill="black" stroke-dasharray="none" font-weight="normal" stroke-width="1" height="435" font-family="'Dialog'" font-style="normal" stroke-linejoin="miter" font-size="12px" stroke-dashoffset="0" image-rendering="auto">
  <!--Generated by ySVG 2.6-->
  <defs id="genericDefs"/>
  <g>
    <defs id="defs1">
      <clipPath clipPathUnits="userSpaceOnUse" id="clipPath1">
        <path d="M0 0 L510 0 L510 435 L0 435 L0 0 Z"/>
      </clipPath>
      <clipPath clipPathUnits="userSpaceOnUse" id="clipPath2">
        <path d="M163 61 L673 61 L673 496 L163 496 L163 61 Z"/>
      </clipPath>
    </defs>
    <g fill="white" text-rendering="geometricPrecision" shape-rendering="geometricPrecision" transform="translate(-163,-61)" stroke="white">
      <rect x="163" width="510" height="435" y="61" clip-path="url(#clipPath2)" stroke="none"/>
    </g>
    <g text-rendering="geometricPrecision" stroke-miterlimit="1.45" shape-rendering="geometricPrecision" transform="matrix(1,0,0,1,-163,-61)" stroke-linecap="butt">
      <circle fill="none" r="7.5" clip-path="url(#clipPath2)" cx="232" cy="216"/>
      <circle fill="none" r="7.5" clip-path="url(#clipPath2)" cx="218" cy="252"/>
    </g>
    <g fill="yellow" text-rendering="geometricPrecision" shape-rendering="geometricPrecision" transform="matrix(1,0,0,1,-163,-61)" stroke="yellow">
      <circle r="7.5" clip-path="url(#clipPath2)" cx="250" cy="252" stroke="none"/>
    </g>
    <g text-rendering="geometricPrecision" stroke-miterlimit="1.45" shape-rendering="geometricPrecision" transform="matrix(1,0,0,1,-163,-61)" stroke-linecap="butt">
      <circle fill="none" r="7.5" clip-path="url(#clipPath2)" cx="250" cy="252"/>
      <circle fill="none" r="7.5" clip-path="url(#clipPath2)" cx="206" cy="288"/>
      <text x="197.8281" font-size="16px" y="255.208" clip-path="url(#clipPath2)" font-family="sans-serif" stroke="none" xml:space="preserve">♂</text>
      <text x="187.1406" font-size="16px" y="290.208" clip-path="url(#clipPath2)" font-family="sans-serif" stroke="none" xml:space="preserve">♀</text>
      <text x="259.8281" font-size="16px" y="261.208" clip-path="url(#clipPath2)" font-family="sans-serif" stroke="none" xml:space="preserve">♂</text>
      <text x="239.1406" font-size="16px" y="212.208" clip-path="url(#clipPath2)" font-family="sans-serif" stroke="none" xml:space="preserve">♀</text>
      <text x="244.39" xml:space="preserve" y="231.656" clip-path="url(#clipPath2)" font-family="sans-serif" stroke="none">m</text>
      <text x="204.31" xml:space="preserve" y="233.656" clip-path="url(#clipPath2)" font-family="sans-serif" stroke="none">p</text>
      <text x="212.39" xml:space="preserve" y="231.656" clip-path="url(#clipPath2)" font-family="sans-serif" stroke="none">m</text>
      <text x="202.936" xml:space="preserve" y="270.656" clip-path="url(#clipPath2)" font-family="sans-serif" stroke="none">f</text>
      <text x="256.31" xml:space="preserve" y="234.656" clip-path="url(#clipPath2)" font-family="sans-serif" stroke="none">p</text>
      <text x="194.31" xml:space="preserve" y="271.656" clip-path="url(#clipPath2)" font-family="sans-serif" stroke="none">p</text>
      <circle fill="none" r="10" clip-path="url(#clipPath2)" cx="285" cy="367"/>
      <circle fill="none" r="10" clip-path="url(#clipPath2)" cx="282" cy="156"/>
      <circle fill="none" r="10" clip-path="url(#clipPath2)" cx="408" cy="229"/>
      <circle fill="none" r="10" clip-path="url(#clipPath2)" cx="574" cy="162"/>
      <circle fill="none" r="10" clip-path="url(#clipPath2)" cx="576" cy="354"/>
      <circle fill="none" r="10" clip-path="url(#clipPath2)" cx="408" cy="429"/>
      <circle fill="none" r="10" clip-path="url(#clipPath2)" cx="444" cy="105"/>
      <circle fill="none" r="10" clip-path="url(#clipPath2)" cx="446" cy="297"/>
      <circle fill="none" r="10" clip-path="url(#clipPath2)" cx="284" cy="259"/>
      <circle fill="none" r="7.5" clip-path="url(#clipPath2)" cx="394" cy="187"/>
      <circle fill="none" r="7.5" clip-path="url(#clipPath2)" cx="380" cy="223"/>
    </g>
    <g fill="yellow" text-rendering="geometricPrecision" shape-rendering="geometricPrecision" transform="matrix(1,0,0,1,-163,-61)" stroke="yellow">
      <circle r="7.5" clip-path="url(#clipPath2)" cx="368" cy="259" stroke="none"/>
    </g>
    <g text-rendering="geometricPrecision" stroke-miterlimit="1.45" shape-rendering="geometricPrecision" transform="matrix(1,0,0,1,-163,-61)" stroke-linecap="butt">
      <circle fill="none" r="7.5" clip-path="url(#clipPath2)" cx="368" cy="259"/>
      <text x="359.8281" font-size="16px" y="226.208" clip-path="url(#clipPath2)" font-family="sans-serif" stroke="none" xml:space="preserve">♂</text>
      <text x="349.1406" font-size="16px" y="261.208" clip-path="url(#clipPath2)" font-family="sans-serif" stroke="none" xml:space="preserve">♀</text>
      <text x="401.1406" font-size="16px" y="183.208" clip-path="url(#clipPath2)" font-family="sans-serif" stroke="none" xml:space="preserve">♀</text>
      <text x="366.31" xml:space="preserve" y="204.656" clip-path="url(#clipPath2)" font-family="sans-serif" stroke="none">p</text>
      <text x="374.39" xml:space="preserve" y="202.656" clip-path="url(#clipPath2)" font-family="sans-serif" stroke="none">m</text>
      <text x="364.936" xml:space="preserve" y="241.656" clip-path="url(#clipPath2)" font-family="sans-serif" stroke="none">f</text>
      <text x="356.31" xml:space="preserve" y="242.656" clip-path="url(#clipPath2)" font-family="sans-serif" stroke="none">p</text>
    </g>
    <g fill="yellow" text-rendering="geometricPrecision" shape-rendering="geometricPrecision" transform="matrix(1,0,0,1,-163,-61)" stroke="yellow">
      <circle r="7.5" clip-path="url(#clipPath2)" cx="630" cy="312" stroke="none"/>
    </g>
    <g text-rendering="geometricPrecision" stroke-miterlimit="1.45" shape-rendering="geometricPrecision" transform="matrix(1,0,0,1,-163,-61)" stroke-linecap="butt">
      <circle fill="none" r="7.5" clip-path="url(#clipPath2)" cx="630" cy="312"/>
      <circle fill="none" r="7.5" clip-path="url(#clipPath2)" cx="616" cy="348"/>
      <circle fill="none" r="7.5" clip-path="url(#clipPath2)" cx="604" cy="384"/>
      <text x="595.8281" font-size="16px" y="351.208" clip-path="url(#clipPath2)" font-family="sans-serif" stroke="none" xml:space="preserve">♂</text>
      <text x="585.1406" font-size="16px" y="386.208" clip-path="url(#clipPath2)" font-family="sans-serif" stroke="none" xml:space="preserve">♀</text>
      <text x="637.1406" font-size="16px" y="308.208" clip-path="url(#clipPath2)" font-family="sans-serif" stroke="none" xml:space="preserve">♀</text>
      <text x="602.31" xml:space="preserve" y="329.656" clip-path="url(#clipPath2)" font-family="sans-serif" stroke="none">p</text>
      <text x="610.39" xml:space="preserve" y="327.656" clip-path="url(#clipPath2)" font-family="sans-serif" stroke="none">m</text>
      <text x="600.936" xml:space="preserve" y="366.656" clip-path="url(#clipPath2)" font-family="sans-serif" stroke="none">f</text>
      <text x="592.31" xml:space="preserve" y="367.656" clip-path="url(#clipPath2)" font-family="sans-serif" stroke="none">p</text>
      <circle fill="none" r="7.5" clip-path="url(#clipPath2)" cx="264" cy="315"/>
    </g>
    <g fill="yellow" text-rendering="geometricPrecision" shape-rendering="geometricPrecision" transform="matrix(1,0,0,1,-163,-61)" stroke="yellow">
      <circle r="7.5" clip-path="url(#clipPath2)" cx="250" cy="351" stroke="none"/>
    </g>
    <g text-rendering="geometricPrecision" stroke-miterlimit="1.45" shape-rendering="geometricPrecision" transform="matrix(1,0,0,1,-163,-61)" stroke-linecap="butt">
      <circle fill="none" r="7.5" clip-path="url(#clipPath2)" cx="250" cy="351"/>
      <circle fill="none" r="7.5" clip-path="url(#clipPath2)" cx="238" cy="387"/>
      <text x="229.8281" font-size="16px" y="354.208" clip-path="url(#clipPath2)" font-family="sans-serif" stroke="none" xml:space="preserve">♂</text>
      <text x="219.1406" font-size="16px" y="389.208" clip-path="url(#clipPath2)" font-family="sans-serif" stroke="none" xml:space="preserve">♀</text>
      <text x="271.1406" font-size="16px" y="311.208" clip-path="url(#clipPath2)" font-family="sans-serif" stroke="none" xml:space="preserve">♀</text>
      <text x="236.31" xml:space="preserve" y="332.656" clip-path="url(#clipPath2)" font-family="sans-serif" stroke="none">p</text>
      <text x="244.39" xml:space="preserve" y="330.656" clip-path="url(#clipPath2)" font-family="sans-serif" stroke="none">m</text>
      <text x="234.936" xml:space="preserve" y="369.656" clip-path="url(#clipPath2)" font-family="sans-serif" stroke="none">f</text>
      <text x="226.31" xml:space="preserve" y="370.656" clip-path="url(#clipPath2)" font-family="sans-serif" stroke="none">p</text>
    </g>
    <g fill="yellow" text-rendering="geometricPrecision" shape-rendering="geometricPrecision" transform="matrix(1,0,0,1,-163,-61)" stroke="yellow">
      <circle r="7.5" clip-path="url(#clipPath2)" cx="488" cy="262" stroke="none"/>
    </g>
    <g text-rendering="geometricPrecision" stroke-miterlimit="1.45" shape-rendering="geometricPrecision" transform="matrix(1,0,0,1,-163,-61)" stroke-linecap="butt">
      <circle fill="none" r="7.5" clip-path="url(#clipPath2)" cx="488" cy="262"/>
      <circle fill="none" r="7.5" clip-path="url(#clipPath2)" cx="474" cy="298"/>
      <text x="468.31" xml:space="preserve" y="278.656" clip-path="url(#clipPath2)" font-family="sans-serif" stroke="none">p</text>
      <circle fill="none" r="7.5" clip-path="url(#clipPath2)" cx="265" cy="122"/>
    </g>
    <g fill="yellow" text-rendering="geometricPrecision" shape-rendering="geometricPrecision" transform="matrix(1,0,0,1,-163,-61)" stroke="yellow">
      <circle r="7.5" clip-path="url(#clipPath2)" cx="251" cy="158" stroke="none"/>
    </g>
    <g text-rendering="geometricPrecision" stroke-miterlimit="1.45" shape-rendering="geometricPrecision" transform="matrix(1,0,0,1,-163,-61)" stroke-linecap="butt">
      <circle fill="none" r="7.5" clip-path="url(#clipPath2)" cx="251" cy="158"/>
      <text x="245.31" xml:space="preserve" y="138.656" clip-path="url(#clipPath2)" font-family="sans-serif" stroke="none">p</text>
    </g>
    <g fill="yellow" text-rendering="geometricPrecision" shape-rendering="geometricPrecision" transform="matrix(1,0,0,1,-163,-61)" stroke="yellow">
      <circle r="7.5" clip-path="url(#clipPath2)" cx="598" cy="147" stroke="none"/>
    </g>
    <g text-rendering="geometricPrecision" stroke-miterlimit="1.45" shape-rendering="geometricPrecision" transform="matrix(1,0,0,1,-163,-61)" stroke-linecap="butt">
      <circle fill="none" r="7.5" clip-path="url(#clipPath2)" cx="598" cy="147"/>
    </g>
    <g fill="yellow" text-rendering="geometricPrecision" shape-rendering="geometricPrecision" transform="matrix(1,0,0,1,-163,-61)" stroke="yellow">
      <circle r="7.5" clip-path="url(#clipPath2)" cx="465" cy="91" stroke="none"/>
    </g>
    <g text-rendering="geometricPrecision" stroke-miterlimit="1.45" shape-rendering="geometricPrecision" transform="matrix(1,0,0,1,-163,-61)" stroke-linecap="butt">
      <circle fill="none" r="7.5" clip-path="url(#clipPath2)" cx="465" cy="91"/>
      <text x="608.1406" font-size="16px" y="146.208" clip-path="url(#clipPath2)" font-family="sans-serif" stroke="none" xml:space="preserve">♀</text>
    </g>
    <g fill="yellow" text-rendering="geometricPrecision" shape-rendering="geometricPrecision" transform="matrix(1,0,0,1,-163,-61)" stroke="yellow">
      <circle r="7.5" clip-path="url(#clipPath2)" cx="434" cy="444" stroke="none"/>
    </g>
    <g text-rendering="geometricPrecision" stroke-miterlimit="1.45" shape-rendering="geometricPrecision" transform="matrix(1,0,0,1,-163,-61)" stroke-linecap="butt">
      <circle fill="none" r="7.5" clip-path="url(#clipPath2)" cx="434" cy="444"/>
      <text x="440.1406" font-size="16px" y="438.208" clip-path="url(#clipPath2)" font-family="sans-serif" stroke="none" xml:space="preserve">♀</text>
      <text x="430.8281" font-size="16px" y="433.208" clip-path="url(#clipPath2)" font-family="sans-serif" stroke="none" xml:space="preserve">♂</text>
      <text x="412.31" xml:space="preserve" y="457.656" clip-path="url(#clipPath2)" font-family="sans-serif" stroke="none">p</text>
      <text x="410.39" xml:space="preserve" y="470.156" clip-path="url(#clipPath2)" font-family="sans-serif" stroke="none">m</text>
      <text x="406.936" xml:space="preserve" y="456.656" clip-path="url(#clipPath2)" font-family="sans-serif" stroke="none">f</text>
    </g>
    <g fill="white" text-rendering="geometricPrecision" shape-rendering="geometricPrecision" transform="matrix(1,0,0,1,-163,-61)" stroke="white">
      <rect x="409" width="20" height="75" y="81.5" clip-path="url(#clipPath2)" stroke="none"/>
    </g>
    <g text-rendering="geometricPrecision" stroke-miterlimit="1.45" shape-rendering="geometricPrecision" transform="matrix(1,0,0,1,-163,-61)" stroke-linecap="butt">
      <rect fill="none" x="409" width="20" height="75" y="81.5" clip-path="url(#clipPath2)"/>
      <text x="415.166" xml:space="preserve" y="90.9678" clip-path="url(#clipPath2)" font-family="sans-serif" stroke="none">A</text>
      <text x="415.1" xml:space="preserve" y="107.3119" clip-path="url(#clipPath2)" font-family="sans-serif" stroke="none">B</text>
      <text x="415.208" xml:space="preserve" y="123.656" clip-path="url(#clipPath2)" font-family="sans-serif" stroke="none">C</text>
      <text x="414.62" xml:space="preserve" y="140.0002" clip-path="url(#clipPath2)" font-family="sans-serif" stroke="none">D</text>
      <text x="415.664" xml:space="preserve" y="156.3443" clip-path="url(#clipPath2)" font-family="sans-serif" stroke="none">E</text>
    </g>
    <g fill="white" text-rendering="geometricPrecision" shape-rendering="geometricPrecision" transform="matrix(1,0,0,1,-163,-61)" stroke="white">
      <rect x="545" width="20" height="50" y="172" clip-path="url(#clipPath2)" stroke="none"/>
    </g>
    <g text-rendering="geometricPrecision" stroke-miterlimit="1.45" shape-rendering="geometricPrecision" transform="matrix(1,0,0,1,-163,-61)" stroke-linecap="butt">
      <rect fill="none" x="545" width="20" height="50" y="172" clip-path="url(#clipPath2)"/>
      <text x="551.166" xml:space="preserve" y="185.3119" clip-path="url(#clipPath2)" font-family="sans-serif" stroke="none">A</text>
      <text x="550.62" xml:space="preserve" y="201.656" clip-path="url(#clipPath2)" font-family="sans-serif" stroke="none">D</text>
      <text x="551.664" xml:space="preserve" y="218.0002" clip-path="url(#clipPath2)" font-family="sans-serif" stroke="none">E</text>
    </g>
    <g fill="white" text-rendering="geometricPrecision" shape-rendering="geometricPrecision" transform="matrix(1,0,0,1,-163,-61)" stroke="white">
      <rect x="371" width="20" height="20" y="433" clip-path="url(#clipPath2)" stroke="none"/>
    </g>
    <g text-rendering="geometricPrecision" stroke-miterlimit="1.45" shape-rendering="geometricPrecision" transform="matrix(1,0,0,1,-163,-61)" stroke-linecap="butt">
      <rect fill="none" x="371" width="20" height="20" y="433" clip-path="url(#clipPath2)"/>
      <text x="378.336" xml:space="preserve" y="447.656" clip-path="url(#clipPath2)" font-family="sans-serif" stroke="none">_</text>
    </g>
    <g fill="white" text-rendering="geometricPrecision" shape-rendering="geometricPrecision" transform="matrix(1,0,0,1,-163,-61)" stroke="white">
      <rect x="552" width="20" height="20" y="369" clip-path="url(#clipPath2)" stroke="none"/>
    </g>
    <g text-rendering="geometricPrecision" stroke-miterlimit="1.45" shape-rendering="geometricPrecision" transform="matrix(1,0,0,1,-163,-61)" stroke-linecap="butt">
      <rect fill="none" x="552" width="20" height="20" y="369" clip-path="url(#clipPath2)"/>
      <text x="558.166" xml:space="preserve" y="383.656" clip-path="url(#clipPath2)" font-family="sans-serif" stroke="none">A</text>
    </g>
    <g fill="white" text-rendering="geometricPrecision" shape-rendering="geometricPrecision" transform="matrix(1,0,0,1,-163,-61)" stroke="white">
      <rect x="284" width="20" height="20" y="380" clip-path="url(#clipPath2)" stroke="none"/>
    </g>
    <g text-rendering="geometricPrecision" stroke-miterlimit="1.45" shape-rendering="geometricPrecision" transform="matrix(1,0,0,1,-163,-61)" stroke-linecap="butt">
      <rect fill="none" x="284" width="20" height="20" y="380" clip-path="url(#clipPath2)"/>
      <text x="290.1" xml:space="preserve" y="394.656" clip-path="url(#clipPath2)" font-family="sans-serif" stroke="none">B</text>
    </g>
    <g fill="white" text-rendering="geometricPrecision" shape-rendering="geometricPrecision" transform="matrix(1,0,0,1,-163,-61)" stroke="white">
      <rect x="386" width="20" height="35" y="241.5" clip-path="url(#clipPath2)" stroke="none"/>
    </g>
    <g text-rendering="geometricPrecision" stroke-miterlimit="1.45" shape-rendering="geometricPrecision" transform="matrix(1,0,0,1,-163,-61)" stroke-linecap="butt">
      <rect fill="none" x="386" width="20" height="35" y="241.5" clip-path="url(#clipPath2)"/>
      <text x="391.62" xml:space="preserve" y="255.484" clip-path="url(#clipPath2)" font-family="sans-serif" stroke="none">D</text>
      <text x="392.664" xml:space="preserve" y="271.8281" clip-path="url(#clipPath2)" font-family="sans-serif" stroke="none">E</text>
    </g>
    <g fill="white" text-rendering="geometricPrecision" shape-rendering="geometricPrecision" transform="matrix(1,0,0,1,-163,-61)" stroke="white">
      <rect x="446" width="20" height="35" y="310.5" clip-path="url(#clipPath2)" stroke="none"/>
    </g>
    <g text-rendering="geometricPrecision" stroke-miterlimit="1.45" shape-rendering="geometricPrecision" transform="matrix(1,0,0,1,-163,-61)" stroke-linecap="butt">
      <rect fill="none" x="446" width="20" height="35" y="310.5" clip-path="url(#clipPath2)"/>
      <text x="452.166" xml:space="preserve" y="324.484" clip-path="url(#clipPath2)" font-family="sans-serif" stroke="none">A</text>
      <text x="452.1" xml:space="preserve" y="340.8281" clip-path="url(#clipPath2)" font-family="sans-serif" stroke="none">B</text>
    </g>
    <g fill="white" text-rendering="geometricPrecision" shape-rendering="geometricPrecision" transform="matrix(1,0,0,1,-163,-61)" stroke="white">
      <rect x="298" width="20" height="35" y="259.5" clip-path="url(#clipPath2)" stroke="none"/>
    </g>
    <g text-rendering="geometricPrecision" stroke-miterlimit="1.45" shape-rendering="geometricPrecision" transform="matrix(1,0,0,1,-163,-61)" stroke-linecap="butt">
      <rect fill="none" x="298" width="20" height="35" y="259.5" clip-path="url(#clipPath2)"/>
      <text x="304.1" xml:space="preserve" y="273.484" clip-path="url(#clipPath2)" font-family="sans-serif" stroke="none">B</text>
      <text x="304.208" xml:space="preserve" y="289.8281" clip-path="url(#clipPath2)" font-family="sans-serif" stroke="none">C</text>
    </g>
    <g fill="white" text-rendering="geometricPrecision" shape-rendering="geometricPrecision" transform="matrix(1,0,0,1,-163,-61)" stroke="white">
      <rect x="298" width="20" height="65" y="150.5" clip-path="url(#clipPath2)" stroke="none"/>
    </g>
    <g text-rendering="geometricPrecision" stroke-miterlimit="1.45" shape-rendering="geometricPrecision" transform="matrix(1,0,0,1,-163,-61)" stroke-linecap="butt">
      <rect fill="none" x="298" width="20" height="65" y="150.5" clip-path="url(#clipPath2)"/>
      <text x="304.1" xml:space="preserve" y="163.1399" clip-path="url(#clipPath2)" font-family="sans-serif" stroke="none">B</text>
      <text x="304.208" xml:space="preserve" y="179.484" clip-path="url(#clipPath2)" font-family="sans-serif" stroke="none">C</text>
      <text x="303.62" xml:space="preserve" y="195.8281" clip-path="url(#clipPath2)" font-family="sans-serif" stroke="none">D</text>
      <text x="304.664" xml:space="preserve" y="212.1722" clip-path="url(#clipPath2)" font-family="sans-serif" stroke="none">E</text>
      <path fill="none" d="M229.2816 222.99 L223.6179 237.5539" clip-path="url(#clipPath2)"/>
      <path d="M220.7184 245.01 L229.7277 235.6381 L223.9804 236.6219 L220.4077 232.0137 Z" clip-path="url(#clipPath2)" stroke="none"/>
      <path fill="none" d="M235.3541 222.7082 L243.0682 238.1364" clip-path="url(#clipPath2)"/>
      <path d="M246.6459 245.2918 L245.7515 232.3226 L242.621 237.242 L236.8072 236.7947 Z" clip-path="url(#clipPath2)" stroke="none"/>
      <path fill="none" d="M215.6283 259.1151 L210.9015 273.2954" clip-path="url(#clipPath2)"/>
      <path d="M208.3717 280.8849 L216.9099 271.0818 L211.2178 272.3467 L207.423 267.9196 Z" clip-path="url(#clipPath2)" stroke="none"/>
      <path fill="none" d="M290.6527 161.0131 L399.3473 223.9869" clip-path="url(#clipPath2)"/>
      <path fill="none" d="M417.2732 225.2572 L564.7268 165.7428" clip-path="url(#clipPath2)"/>
      <path fill="none" d="M574.1042 171.9995 L575.8958 344.0005" clip-path="url(#clipPath2)"/>
      <path fill="none" d="M566.8686 358.0765 L417.1314 424.9235" clip-path="url(#clipPath2)"/>
      <path fill="none" d="M408 239 L408 419" clip-path="url(#clipPath2)"/>
      <path fill="none" d="M399.0703 424.4988 L293.9297 371.5012" clip-path="url(#clipPath2)"/>
      <path fill="none" d="M291.5385 152.9971 L434.4615 108.0029" clip-path="url(#clipPath2)"/>
      <path fill="none" d="M453.1583 109.0156 L564.8417 157.9844" clip-path="url(#clipPath2)"/>
      <path fill="none" d="M444.1042 114.9995 L445.8958 287.0005" clip-path="url(#clipPath2)"/>
      <path fill="none" d="M294.1707 363.0127 L436.8293 300.9873" clip-path="url(#clipPath2)"/>
      <path fill="none" d="M455.1583 301.0156 L566.8417 349.9844" clip-path="url(#clipPath2)"/>
      <path fill="none" d="M282.1942 165.9981 L283.8058 249.0019" clip-path="url(#clipPath2)"/>
      <path fill="none" d="M284.0926 268.9996 L284.9074 357.0004" clip-path="url(#clipPath2)"/>
      <path fill="none" d="M391.2816 193.99 L385.6179 208.5539" clip-path="url(#clipPath2)"/>
      <path d="M382.7184 216.01 L391.7277 206.6381 L385.9804 207.6219 L382.4077 203.0137 Z" clip-path="url(#clipPath2)" stroke="none"/>
      <path fill="none" d="M377.6283 230.1151 L372.9015 244.2954" clip-path="url(#clipPath2)"/>
      <path d="M370.3717 251.8849 L378.9099 242.0818 L373.2177 243.3467 L369.423 238.9195 Z" clip-path="url(#clipPath2)" stroke="none"/>
      <path fill="none" d="M627.2817 318.99 L621.6179 333.5539" clip-path="url(#clipPath2)"/>
      <path d="M618.7183 341.0099 L627.7277 331.6382 L621.9803 332.6219 L618.4077 328.0137 Z" clip-path="url(#clipPath2)" stroke="none"/>
      <path fill="none" d="M613.6283 355.1151 L608.9016 369.2954" clip-path="url(#clipPath2)"/>
      <path d="M606.3717 376.8849 L614.9099 367.0818 L609.2178 368.3467 L605.423 363.9195 Z" clip-path="url(#clipPath2)" stroke="none"/>
      <path fill="none" d="M261.2816 321.99 L255.6179 336.5539" clip-path="url(#clipPath2)"/>
      <path d="M252.7184 344.01 L261.7277 334.6382 L255.9804 335.6219 L252.4077 331.0137 Z" clip-path="url(#clipPath2)" stroke="none"/>
      <path fill="none" d="M247.6283 358.1151 L242.9015 372.2954" clip-path="url(#clipPath2)"/>
      <path d="M240.3717 379.8849 L248.9099 370.0818 L243.2178 371.3467 L239.423 366.9196 Z" clip-path="url(#clipPath2)" stroke="none"/>
      <path fill="none" d="M485.2816 268.99 L479.6179 283.5539" clip-path="url(#clipPath2)"/>
      <path d="M476.7184 291.01 L485.7277 281.6382 L479.9803 282.6219 L476.4077 278.0137 Z" clip-path="url(#clipPath2)" stroke="none"/>
      <path fill="none" d="M262.2816 128.99 L256.6179 143.5539" clip-path="url(#clipPath2)"/>
      <path d="M253.7184 151.01 L262.7277 141.6381 L256.9804 142.6219 L253.4077 138.0137 Z" clip-path="url(#clipPath2)" stroke="none"/>
      <path fill="none" d="M427.631 447.907 L425.0176 450.1934 L422.7742 453.512 L421.7656 456.7969 L422.6621 462.7207 L426.125 466.875 L430.5723 468.1699 L432.6707 467.4045 L434.4219 465.5156 L435.7513 459.3908 L435.7364 459.2919" clip-path="url(#clipPath2)"/>
      <path d="M435.1145 451.3161 L431.0625 463.6685 L435.8141 460.2888 L441.0322 462.8911 Z" clip-path="url(#clipPath2)" stroke="none"/>
    </g>
  </g>
</svg>
